<svg xmlns="http://www.w3.org/2000/svg" width="24" height="24" viewBox="0 0 24 24">
    <g fill="none" fill-rule="evenodd">
        <g>
            <circle cx="12" cy="12" r="8" fill="#FFF"/>
            <g fill="#212121">
                <path d="M8 0C3.582 0 0 3.582 0 8s3.582 8 8 8 8-3.582 8-8c-.005-4.416-3.584-7.995-8-8zm.286 2.306l2.78-1.111c.316.142.622.307.914.492l.008.005c.288.182.563.384.823.603l.022.02c.117.1.23.202.341.309l.043.04c.115.113.227.23.336.35l.026.03c.096.107.187.218.276.33l.063.08c.097.125.19.252.278.383l-.554 2.357-2.728.909-2.628-2.102V2.306zM2.08 3.456l.064-.08c.087-.112.178-.22.272-.326l.03-.034c.107-.12.219-.237.334-.35l.04-.038c.11-.106.223-.208.339-.307l.026-.022c.259-.218.53-.419.816-.6l.01-.007c.291-.185.595-.349.909-.492l2.793 1.106V5L5.087 7.102l-2.728-.908-.554-2.357c.088-.13.18-.257.276-.381zm-.321 8.636c-.078-.12-.153-.241-.225-.365l-.017-.03c-.071-.124-.139-.25-.202-.377l-.002-.004c-.134-.268-.251-.544-.351-.826v-.003c-.048-.133-.091-.27-.131-.407l-.014-.051c-.037-.129-.07-.26-.1-.391L.71 9.6C.644 9.302.597 9 .569 8.696l1.628-1.953 2.709.903.786 3.144L4.4 12.51l-2.64-.418zm8.016 3.16c-.134.033-.27.061-.407.087l-.058.01c-.117.02-.234.039-.353.053-.031.004-.062.009-.094.012-.11.013-.22.023-.33.03l-.105.009c-.142.009-.285.014-.429.014-.132 0-.263-.004-.393-.01-.016 0-.031-.003-.047-.005-.116-.006-.231-.015-.347-.026l-.013-.003c-.252-.027-.504-.067-.752-.12l-1.577-2.47 1.271-1.695h3.716l1.292 1.707-1.374 2.406zM15.292 9.6l-.008.038c-.03.132-.063.262-.1.391l-.014.05c-.04.138-.083.274-.13.408v.003c-.101.282-.218.558-.352.827l-.002.004c-.064.127-.131.253-.202.376l-.017.03c-.071.124-.146.246-.225.365l-2.63.415-1.302-1.718.786-3.143 2.71-.903 1.627 1.953c-.028.304-.075.606-.14.904z" transform="translate(4 4)"/>
            </g>
            <path fill="#D32F2F" d="M17.833 12C14.608 12 12 14.607 12 17.833s2.607 5.834 5.833 5.834 5.834-2.608 5.834-5.834c0-3.225-2.608-5.833-5.834-5.833z"/>
            <text fill="#FFF" font-family="IRANYekan-ExtraBlack, IRANYekan" font-size="6" font-weight="800">
                <tspan x="13.148" y="20">OG</tspan>
            </text>
        </g>
    </g>
</svg>
